<mxfile host="app.diagrams.net" modified="2024-07-13T22:32:14.350Z" agent="Mozilla/5.0 (Windows NT 10.0; Win64; x64) AppleWebKit/537.36 (KHTML, like Gecko) Chrome/125.0.0.0 Safari/537.36" version="24.5.2" etag="Ke_CfvVyWIdc1I4JC206" type="github">
  <diagram name="Page-1" id="zRMieddLaIv4jnF6-AXl">
    <mxGraphModel>
      <root>
        <mxCell id="0" />
        <mxCell id="1" parent="0" />
      </root>
    </mxGraphModel>
  </diagram>
</mxfile>
